<?xml version="1.0" standalone="no"?><!DOCTYPE svg PUBLIC "-//W3C//DTD SVG 1.1//EN" "http://www.w3.org/Graphics/SVG/1.1/DTD/svg11.dtd"><svg t="1677526953117" class="icon" viewBox="0 0 1024 1024" version="1.1" xmlns="http://www.w3.org/2000/svg" p-id="2895" xmlns:xlink="http://www.w3.org/1999/xlink" width="200" height="200"><path d="M896 144H128V96c0-35.2 28.8-64 64-64h640c35.2 0 64 28.8 64 64v48zM352 832v96c0 35.2-28.8 64-64 64-17.6 0-33.6-7.04-45.12-18.88C231.04 961.6 224 945.6 224 928v-96h128zM800 832v96c0 35.2-28.8 64-64 64-17.6 0-33.6-7.04-45.12-18.88-11.84-11.52-18.88-27.52-18.88-45.12v-96h128z" fill="#1296db" p-id="2896"></path><path d="M736 672m-80 0a80 80 0 1 0 160 0 80 80 0 1 0-160 0Z" fill="#1296db" p-id="2897"></path><path d="M288 672m-80 0a80 80 0 1 0 160 0 80 80 0 1 0-160 0Z" fill="#1296db" p-id="2898"></path><path d="M992 256h-64V96c0-52.928-43.072-96-96-96H192C139.072 0 96 43.072 96 96v160H32a32 32 0 0 0-32 32v256a32 32 0 0 0 32 32h64v192c0 52.928 43.072 96 96 96v64c0 25.952 10.112 50.112 27.968 67.456 17.92 18.4 42.08 28.544 68.032 28.544 52.928 0 96-43.072 96-96v-64h256v64c0 25.952 10.112 50.112 27.968 67.456 17.92 18.4 42.08 28.544 68.032 28.544 52.928 0 96-43.072 96-96v-64c52.928 0 96-43.072 96-96v-192h64a32 32 0 0 0 32-32V288a32 32 0 0 0-32-32zM96 512H64v-192h32v192z m224 416c0 17.632-14.336 32-32 32a31.296 31.296 0 0 1-22.816-9.792A30.752 30.752 0 0 1 256 928v-64h64v64z m448 0c0 17.632-14.336 32-32 32a31.296 31.296 0 0 1-22.816-9.792A30.752 30.752 0 0 1 704 928v-64h64v64z m96-160c0 17.632-14.336 32-32 32H192c-17.664 0-32-14.368-32-32v-224h704v224z m0-256H160V160h704v352z m0-384H160V96c0-17.632 14.336-32 32-32h640c17.664 0 32 14.368 32 32v32z m96 384h-32v-192h32v192z" fill="#1296db" p-id="2899"></path><path d="M288 768c52.928 0 96-43.072 96-96s-43.072-96-96-96-96 43.072-96 96 43.072 96 96 96z m0-160c35.296 0 64 28.704 64 64s-28.704 64-64 64-64-28.704-64-64 28.704-64 64-64zM736 768c52.928 0 96-43.072 96-96s-43.072-96-96-96-96 43.072-96 96 43.072 96 96 96z m0-160c35.296 0 64 28.704 64 64s-28.704 64-64 64-64-28.704-64-64 28.704-64 64-64z" fill="#1296db" p-id="2900"></path></svg>